<?xml version="1.0" standalone="no"?>
<!DOCTYPE svg PUBLIC "-//W3C//DTD SVG 20010904//EN"
 "http://www.w3.org/TR/2001/REC-SVG-20010904/DTD/svg10.dtd">
<svg version="1.0" xmlns="http://www.w3.org/2000/svg"
 width="475.000000pt" height="475.000000pt" viewBox="0 0 475.000000 475.000000"
 preserveAspectRatio="xMidYMid meet">
<metadata>
Created by potrace 1.11, written by Peter Selinger 2001-2013
</metadata>
<g transform="translate(0.000000,475.000000) scale(0.100000,-0.100000)"
fill="#000000" stroke="none">
<path d="M2774 4175 c-27 -6 -55 -15 -62 -19 -6 -4 -21 -9 -33 -11 -39 -8
-111 -57 -169 -116 l-58 -59 -23 19 c-39 30 -147 81 -172 81 -13 0 -27 3 -31
7 -21 21 -219 25 -298 6 -35 -8 -70 -16 -78 -18 -8 -2 -28 -10 -45 -19 -16 -9
-36 -16 -42 -16 -7 0 -13 -4 -13 -9 0 -5 -11 -12 -25 -15 -14 -4 -59 -40 -101
-81 -66 -66 -78 -74 -102 -69 -15 4 -31 10 -37 14 -9 7 -66 24 -120 37 -108
24 -299 20 -373 -8 -15 -6 -27 -10 -27 -9 0 8 -75 -20 -141 -52 -95 -45 -196
-125 -247 -195 -45 -62 -94 -159 -103 -204 -8 -44 -12 -64 -14 -64 0 0 -2 -28
-3 -63 -1 -34 2 -62 7 -62 11 0 -2 -15 -15 -16 -5 -1 -10 -2 -11 -3 -2 -1 -17
-4 -35 -7 -144 -18 -309 -161 -341 -294 -2 -8 -6 -43 -9 -77 -5 -64 21 -173
51 -211 8 -9 27 -32 42 -50 15 -19 49 -48 76 -66 l48 -33 -25 -19 c-14 -10
-25 -24 -25 -31 0 -7 -4 -13 -8 -13 -8 0 -27 -40 -48 -105 -27 -80 -9 -201 42
-282 24 -37 115 -123 132 -123 6 0 12 -3 12 -8 0 -8 65 -38 115 -54 50 -15 77
-19 143 -22 56 -1 66 -5 85 -29 36 -46 116 -127 125 -127 5 0 20 -10 34 -22
14 -13 35 -29 47 -36 47 -28 139 -72 149 -72 6 0 14 -5 18 -12 5 -8 2 -9 -12
-4 -44 18 -176 25 -249 13 -59 -9 -155 -40 -166 -53 -6 -8 -17 -14 -23 -14
-19 0 -83 -72 -98 -110 -46 -112 37 -226 202 -281 49 -16 90 -22 165 -22 108
0 138 4 201 26 102 37 157 78 188 140 52 100 -6 212 -141 273 -29 14 -53 26
-53 28 0 2 28 -5 62 -16 35 -10 81 -21 103 -24 59 -7 243 -7 295 0 54 8 84 14
88 16 2 3 1 2 52 14 19 5 58 19 87 31 l52 23 48 -47 c58 -57 151 -120 218
-148 43 -18 133 -48 158 -52 4 0 8 -1 10 -2 41 -12 249 -17 307 -6 19 3 50 9
68 12 69 13 212 81 283 135 83 62 184 187 204 250 5 17 9 17 65 -5 94 -37 152
-48 255 -48 70 0 170 8 170 13 0 2 16 6 45 13 98 22 210 88 286 169 41 43 101
126 102 141 0 4 6 22 12 40 13 33 20 64 24 107 2 26 2 26 116 55 253 64 455
262 498 490 23 124 -9 296 -71 379 -13 17 -26 39 -30 49 -3 9 -11 17 -16 17
-17 0 -20 30 -6 63 8 19 11 37 8 41 -4 3 -2 6 3 6 11 0 13 18 14 114 1 76 -31
183 -51 171 -4 -3 -5 3 -3 12 9 36 -124 174 -208 216 -77 38 -116 53 -143 56
-8 0 -15 7 -15 15 0 7 -16 45 -35 84 -27 53 -52 85 -98 125 -59 52 -149 103
-195 112 -12 2 -26 6 -31 10 -30 18 -190 24 -270 11 -86 -14 -198 -65 -251
-113 -31 -28 -46 -29 -62 -3 -7 11 -18 20 -24 20 -6 0 -17 7 -24 15 -17 21
-108 62 -166 76 -68 15 -181 17 -240 4z m116 -13 c0 -4 -9 -8 -19 -8 -11 0
-17 4 -15 8 3 4 12 8 20 8 8 0 14 -4 14 -8z m740 -2 c0 -5 -2 -10 -4 -10 -3 0
-8 5 -11 10 -3 6 -1 10 4 10 6 0 11 -4 11 -10z m65 -1 c-5 -6 -55 0 -55 7 0 3
13 3 29 2 16 -1 28 -5 26 -9z m-895 -3 c0 -2 -7 -7 -16 -10 -8 -3 -12 -2 -9 4
6 10 25 14 25 6z m190 -6 c0 -5 -2 -10 -4 -10 -3 0 -8 5 -11 10 -3 6 -1 10 4
10 6 0 11 -4 11 -10z m570 4 c0 -8 -19 -13 -24 -6 -3 5 1 9 9 9 8 0 15 -2 15
-3z m220 0 c0 -8 -19 -13 -24 -6 -3 5 1 9 9 9 8 0 15 -2 15 -3z m80 -24 c8 -5
11 -10 5 -10 -5 0 -17 5 -25 10 -8 5 -10 10 -5 10 6 0 17 -5 25 -10z m-755
-18 c-3 -3 -11 0 -18 7 -9 10 -8 11 6 5 10 -3 15 -9 12 -12z m40 -20 c-3 -3
-11 0 -18 7 -9 10 -8 11 6 5 10 -3 15 -9 12 -12z m836 -29 c13 -17 13 -17 -6
-3 -11 8 -22 16 -24 17 -2 2 0 3 6 3 6 0 17 -8 24 -17z m-1721 -13 c8 -5 11
-10 5 -10 -5 0 -17 5 -25 10 -8 5 -10 10 -5 10 6 0 17 -5 25 -10z m-390 -4 c0
-2 -7 -7 -16 -10 -8 -3 -12 -2 -9 4 6 10 25 14 25 6z m2174 -35 c-2 -3 -12 3
-22 13 -16 17 -16 18 5 5 12 -7 20 -15 17 -18z m-813 -4 c-10 -9 -11 -8 -5 6
3 10 9 15 12 12 3 -3 0 -11 -7 -18z m49 20 c0 -2 -12 -14 -27 -28 l-28 -24 24
28 c23 25 31 32 31 24z m-1495 -17 c-3 -5 -12 -10 -18 -10 -7 0 -6 4 3 10 19
12 23 12 15 0z m605 -20 c0 -5 -2 -10 -4 -10 -3 0 -8 5 -11 10 -3 6 -1 10 4
10 6 0 11 -4 11 -10z m1680 0 c0 -5 -2 -10 -4 -10 -3 0 -8 5 -11 10 -3 6 -1
10 4 10 6 0 11 -4 11 -10z m-2350 -15 c-7 -9 -15 -13 -19 -10 -3 3 1 10 9 15
21 14 24 12 10 -5z m1490 1 c0 -2 -7 -7 -16 -10 -8 -3 -12 -2 -9 4 6 10 25 14
25 6z m-772 -52 c-6 -13 -16 -24 -21 -24 -5 0 -4 7 3 15 7 8 10 24 7 36 -4 16
-3 18 8 9 11 -9 11 -17 3 -36z m772 16 c-12 -16 -24 -30 -26 -30 -3 0 4 14 16
30 12 17 24 30 26 30 3 0 -4 -13 -16 -30z m-1527 5 c-3 -9 -8 -14 -10 -11 -3
3 -2 9 2 15 9 16 15 13 8 -4z m788 -8 c-10 -9 -11 -8 -5 6 3 10 9 15 12 12 3
-3 0 -11 -7 -18z m-1168 -44 c-7 -2 -19 -2 -25 0 -7 3 -2 5 12 5 14 0 19 -2
13 -5z m1134 -20 c-14 -14 -19 -15 -29 -4 -11 12 -10 13 5 8 11 -4 20 -1 24 9
3 8 8 12 11 9 3 -3 -2 -13 -11 -22z m-1394 10 c-7 -2 -19 -2 -25 0 -7 3 -2 5
12 5 14 0 19 -2 13 -5z m324 1 c-3 -3 -12 -4 -19 -1 -8 3 -5 6 6 6 11 1 17 -2
13 -5z m-473 -46 c-3 -4 -9 -8 -15 -8 -5 0 -9 4 -9 8 0 5 7 9 15 9 8 0 12 -4
9 -9z m3253 -20 c-3 -7 -5 -2 -5 12 0 14 2 19 5 13 2 -7 2 -19 0 -25z m-2597
0 c0 -6 -6 -5 -15 2 -8 7 -15 14 -15 16 0 2 7 1 15 -2 8 -4 15 -11 15 -16z
m40 12 c0 -5 -2 -10 -4 -10 -3 0 -8 5 -11 10 -3 6 -1 10 4 10 6 0 11 -4 11
-10z m2567 -52 c-3 -8 -6 -5 -6 6 -1 11 2 17 5 13 3 -3 4 -12 1 -19z m30 -30
c-2 -13 -4 -5 -4 17 -1 22 1 32 4 23 2 -10 2 -28 0 -40z m94 14 c-7 -2 -18 1
-23 6 -8 8 -4 9 13 5 13 -4 18 -8 10 -11z m-2576 -21 c-3 -6 -11 -11 -16 -11
-5 0 -4 6 3 14 14 16 24 13 13 -3z m2725 -76 c19 -19 32 -35 29 -35 -3 0 -20
16 -39 35 -19 19 -32 35 -29 35 3 0 20 -16 39 -35z m-3840 -49 c0 -2 -8 -10
-17 -17 -16 -13 -17 -12 -4 4 13 16 21 21 21 13z m-81 -157 c-14 -44 -20 -240
-8 -256 7 -7 6 -14 -1 -18 -5 -3 -10 0 -11 7 0 7 -3 22 -5 33 -7 31 -6 147 0
180 10 45 27 97 32 93 2 -3 -1 -20 -7 -39z m-122 -265 c-3 -3 -12 -4 -19 -1
-8 3 -5 6 6 6 11 1 17 -2 13 -5z m84 -17 c-10 -9 -11 -8 -5 6 3 10 9 15 12 12
3 -3 0 -11 -7 -18z m-151 -1 c0 -5 -60 -36 -69 -36 -3 0 8 9 24 20 29 19 45
25 45 16z m190 -26 c0 -11 -2 -20 -4 -20 -2 0 -6 9 -9 20 -3 11 -1 20 4 20 5
0 9 -9 9 -20z m4051 -27 c13 -16 12 -17 -3 -5 -9 8 -23 10 -29 6 -8 -4 -9 -3
-5 4 10 17 21 15 37 -5z m-4351 -16 c0 -2 -17 -19 -37 -38 l-38 -34 34 38 c33
34 41 42 41 34z m4210 -70 c0 -2 -10 -12 -22 -23 l-23 -19 19 23 c18 21 26 27
26 19z m40 -1 c0 -2 -8 -10 -17 -17 -16 -13 -17 -12 -4 4 13 16 21 21 21 13z
m-4336 -372 c3 -8 2 -12 -4 -9 -6 3 -10 10 -10 16 0 14 7 11 14 -7z m4546 6
c0 -5 -5 -10 -11 -10 -5 0 -7 5 -4 10 3 6 8 10 11 10 2 0 4 -4 4 -10z m-4490
-75 c19 -19 32 -35 29 -35 -3 0 -20 16 -39 35 -19 19 -32 35 -29 35 3 0 20
-16 39 -35z m165 -133 c-3 -3 -11 0 -18 7 -9 10 -8 11 6 5 10 -3 15 -9 12 -12z
m85 12 c0 -8 -19 -13 -24 -6 -3 5 1 9 9 9 8 0 15 -2 15 -3z m60 -8 c0 -2 -7
-7 -16 -10 -8 -3 -12 -2 -9 4 6 10 25 14 25 6z m-240 -26 c-6 -11 -13 -20 -16
-20 -2 0 0 9 6 20 6 11 13 20 16 20 2 0 0 -9 -6 -20z m140 14 c0 -8 -19 -13
-24 -6 -3 5 1 9 9 9 8 0 15 -2 15 -3z m97 -20 c-3 -3 -12 -4 -19 -1 -8 3 -5 6
6 6 11 1 17 -2 13 -5z m3531 -69 c-3 -3 -9 2 -12 12 -6 14 -5 15 5 6 7 -7 10
-15 7 -18z m457 5 c-3 -5 -12 -10 -18 -10 -7 0 -6 4 3 10 19 12 23 12 15 0z
m-415 -20 c0 -5 -2 -10 -4 -10 -3 0 -8 5 -11 10 -3 6 -1 10 4 10 6 0 11 -4 11
-10z m20 -65 c0 -8 -2 -15 -4 -15 -2 0 -6 7 -10 15 -3 8 -1 15 4 15 6 0 10 -7
10 -15z m-3903 -17 c-3 -8 -6 -5 -6 6 -1 11 2 17 5 13 3 -3 4 -12 1 -19z
m4143 8 c0 -2 -7 -7 -16 -10 -8 -3 -12 -2 -9 4 6 10 25 14 25 6z m-234 -43
c-2 -10 2 -22 8 -26 7 -6 6 -7 -3 -5 -16 4 -26 48 -12 48 5 0 8 -8 7 -17z m94
-7 c0 -2 -7 -7 -16 -10 -8 -3 -12 -2 -9 4 6 10 25 14 25 6z m-120 -16 c0 -5
-2 -10 -4 -10 -3 0 -8 5 -11 10 -3 6 -1 10 4 10 6 0 11 -4 11 -10z m0 -60 c0
-5 -5 -10 -11 -10 -5 0 -7 5 -4 10 3 6 8 10 11 10 2 0 4 -4 4 -10z m-3805
-128 c-3 -3 -11 0 -18 7 -9 10 -8 11 6 5 10 -3 15 -9 12 -12z m3756 -25 c-10
-9 -11 -8 -5 6 3 10 9 15 12 12 3 -3 0 -11 -7 -18z m-41 -71 c0 -2 -8 -10 -17
-17 -16 -13 -17 -12 -4 4 13 16 21 21 21 13z m-3533 -32 c-3 -3 -12 -4 -19 -1
-8 3 -5 6 6 6 11 1 17 -2 13 -5z m370 -28 c-2 -6 -11 -12 -21 -12 -13 -2 -14
-1 -1 3 13 4 14 8 4 19 -10 12 -9 13 5 8 9 -4 15 -12 13 -18z m2357 -1 c-4 -8
-8 -15 -10 -15 -2 0 -4 7 -4 15 0 8 4 15 10 15 5 0 7 -7 4 -15z m-2607 -1 c-3
-3 -12 -4 -19 -1 -8 3 -5 6 6 6 11 1 17 -2 13 -5z m200 -20 c-3 -3 -12 -4 -19
-1 -8 3 -5 6 6 6 11 1 17 -2 13 -5z m3133 3 c0 -2 -9 -12 -20 -22 -24 -21 -27
-14 -4 9 15 15 24 20 24 13z m-737 -22 c4 -8 3 -16 -1 -19 -4 -3 -9 4 -9 15
-2 23 3 25 10 4z m-23 -5 c0 -5 -5 -10 -11 -10 -5 0 -7 5 -4 10 3 6 8 10 11
10 2 0 4 -4 4 -10z m680 -35 c0 -2 -10 -9 -22 -15 -22 -11 -22 -10 -4 4 21 17
26 19 26 11z m-3019 -52 c13 -16 12 -17 -3 -4 -10 7 -18 15 -18 17 0 8 8 3 21
-13z m2914 -3 c3 -5 1 -10 -4 -10 -6 0 -11 5 -11 10 0 6 2 10 4 10 3 0 8 -4
11 -10z m-615 -20 c-6 -11 -13 -20 -16 -20 -2 0 0 9 6 20 6 11 13 20 16 20 2
0 0 -9 -6 -20z m-1343 -12 c-3 -8 -6 -5 -6 6 -1 11 2 17 5 13 3 -3 4 -12 1
-19z m-877 -24 c0 -2 -9 0 -20 6 -11 6 -20 13 -20 16 0 2 9 0 20 -6 11 -6 20
-13 20 -16z m915 8 c-3 -3 -11 0 -18 7 -9 10 -8 11 6 5 10 -3 15 -9 12 -12z
m-875 -32 c0 -5 -2 -10 -4 -10 -3 0 -8 5 -11 10 -3 6 -1 10 4 10 6 0 11 -4 11
-10z m903 -10 c9 -11 13 -20 7 -20 -5 0 -14 9 -20 20 -6 11 -9 20 -8 20 2 0
11 -9 21 -20z m-868 -18 c-3 -3 -11 0 -18 7 -9 10 -8 11 6 5 10 -3 15 -9 12
-12z m2089 -7 c-4 -8 -11 -15 -16 -15 -6 0 -5 6 2 15 7 8 14 15 16 15 2 0 1
-7 -2 -15z m-1224 -19 c0 -2 -7 -7 -16 -10 -8 -3 -12 -2 -9 4 6 10 25 14 25 6z
m82 -50 c26 -27 32 -36 25 -36 -2 0 -23 21 -47 47 -25 26 -36 40 -26 32 11 -7
33 -27 48 -43z m-837 24 c3 -6 -1 -7 -9 -4 -18 7 -21 14 -7 14 6 0 13 -4 16
-10z m705 0 c-8 -5 -19 -10 -25 -10 -5 0 -3 5 5 10 8 5 20 10 25 10 6 0 3 -5
-5 -10z m-75 -20 c3 -5 1 -10 -4 -10 -6 0 -11 5 -11 10 0 6 2 10 4 10 3 0 8
-4 11 -10z m1295 7 c0 -2 -10 -12 -22 -23 l-23 -19 19 23 c18 21 26 27 26 19z
m-2126 -25 c2 -4 -4 -8 -14 -8 -10 0 -16 4 -14 8 3 4 9 8 14 8 5 0 11 -4 14
-8z m36 -2 c0 -5 -2 -10 -4 -10 -3 0 -8 5 -11 10 -3 6 -1 10 4 10 6 0 11 -4
11 -10z m75 -2 c3 -2 -9 -4 -25 -4 -17 0 -30 3 -30 7 0 8 47 6 55 -3z m235 6
c0 -8 -19 -13 -24 -6 -3 5 1 9 9 9 8 0 15 -2 15 -3z m415 -4 c-3 -5 -12 -10
-18 -10 -7 0 -6 4 3 10 19 12 23 12 15 0z m-370 -18 c-3 -3 -11 0 -18 7 -9 10
-8 11 6 5 10 -3 15 -9 12 -12z m-164 -10 c-7 -2 -18 1 -23 6 -8 8 -4 9 13 5
13 -4 18 -8 10 -11z m249 8 c0 -4 -7 -7 -15 -6 -23 3 -26 12 -5 13 11 1 20 -2
20 -7z m140 0 c0 -5 -4 -10 -10 -10 -5 0 -10 5 -10 10 0 6 5 10 10 10 6 0 10
-4 10 -10z m-765 -10 c-3 -5 -12 -10 -18 -10 -7 0 -6 4 3 10 19 12 23 12 15 0z
m420 -10 c3 -6 -1 -7 -9 -4 -18 7 -21 14 -7 14 6 0 13 -4 16 -10z m1755 -19
c0 -5 -7 -12 -16 -15 -14 -5 -15 -4 -4 9 14 17 20 19 20 6z m-2260 -16 c-7 -8
-17 -15 -23 -15 -6 0 -2 7 9 15 25 19 30 19 14 0z m581 -12 c13 -16 12 -17 -3
-4 -10 7 -18 15 -18 17 0 8 8 3 21 -13z m844 -13 c3 -6 -1 -7 -9 -4 -18 7 -21
14 -7 14 6 0 13 -4 16 -10z m40 -28 c-3 -3 -11 0 -18 7 -9 10 -8 11 6 5 10 -3
15 -9 12 -12z m705 14 c0 -2 -7 -7 -16 -10 -8 -3 -12 -2 -9 4 6 10 25 14 25 6z
m-2220 -10 c0 -2 -8 -10 -17 -17 -16 -13 -17 -12 -4 4 13 16 21 21 21 13z
m-37 -61 c-3 -9 -8 -14 -10 -11 -3 3 -2 9 2 15 9 16 15 13 8 -4z m734 -7 c-3
-8 -6 -5 -6 6 -1 11 2 17 5 13 3 -3 4 -12 1 -19z m1143 -5 c2 -2 -13 -3 -34
-1 -20 1 -39 5 -42 9 -4 7 68 0 76 -8z m114 6 c3 -3 -5 -5 -19 -5 -13 0 -22 3
-19 7 4 8 30 6 38 -2z m-1997 -41 c-3 -8 -6 -5 -6 6 -1 11 2 17 5 13 3 -3 4
-12 1 -19z m740 -30 c-3 -7 -5 -2 -5 12 0 14 2 19 5 13 2 -7 2 -19 0 -25z
m-686 -75 c13 -16 12 -17 -3 -4 -10 7 -18 15 -18 17 0 8 8 3 21 -13z m649 4
c0 -2 -10 -12 -21 -23 -22 -19 -22 -19 -8 4 12 19 29 30 29 19z m-105 -67 c3
-5 1 -10 -4 -10 -6 0 -11 5 -11 10 0 6 2 10 4 10 3 0 8 -4 11 -10z m-430 -10
c3 -6 -1 -7 -9 -4 -18 7 -21 14 -7 14 6 0 13 -4 16 -10z m70 -20 c3 -6 -1 -7
-9 -4 -18 7 -21 14 -7 14 6 0 13 -4 16 -10z m162 -16 c-3 -3 -12 -4 -19 -1 -8
3 -5 6 6 6 11 1 17 -2 13 -5z"/>
<path d="M434 1101 c-77 -19 -160 -77 -164 -116 -1 -5 -6 -15 -11 -21 -11 -14
6 -75 29 -101 27 -30 73 -59 117 -73 49 -16 195 -21 195 -7 0 6 3 8 6 4 10
-10 104 30 131 55 93 87 55 195 -87 247 -42 16 -172 22 -216 12z m123 -18
c-20 -2 -52 -2 -70 0 -17 2 0 4 38 4 39 0 53 -2 32 -4z m-157 -17 c0 -2 -7 -7
-16 -10 -8 -3 -12 -2 -9 4 6 10 25 14 25 6z m311 -33 c13 -16 12 -17 -3 -4
-10 7 -18 15 -18 17 0 8 8 3 21 -13z m-393 -22 c-13 -17 -27 -30 -32 -30 -6
-1 3 13 19 29 37 38 43 39 13 1z m426 -7 c3 -8 2 -12 -4 -9 -6 3 -10 10 -10
16 0 14 7 11 14 -7z m23 -71 c-3 -10 -5 -2 -5 17 0 19 2 27 5 18 2 -10 2 -26
0 -35z m-476 -30 c13 -16 12 -17 -3 -4 -17 13 -22 21 -14 21 2 0 10 -8 17 -17z
m448 -32 c-7 -10 -21 -24 -33 -31 -15 -9 -12 -3 8 19 34 35 41 39 25 12z
m-414 -9 c-3 -3 -11 0 -18 7 -9 10 -8 11 6 5 10 -3 15 -9 12 -12z m50 -40 c-3
-3 -11 0 -18 7 -9 10 -8 11 6 5 10 -3 15 -9 12 -12z m72 -18 c-3 -3 -12 -4
-19 -1 -8 3 -5 6 6 6 11 1 17 -2 13 -5z m40 -10 c-3 -3 -12 -4 -19 -1 -8 3 -5
6 6 6 11 1 17 -2 13 -5z m80 0 c-3 -3 -12 -4 -19 -1 -8 3 -5 6 6 6 11 1 17 -2
13 -5z"/>
<path d="M209 781 c-18 -9 -41 -28 -52 -42 -18 -24 -18 -28 -3 -56 13 -27 35
-44 58 -47 3 -1 10 -4 14 -8 16 -17 109 -8 149 15 32 18 41 29 43 56 4 37 -17
67 -58 84 -39 16 -115 15 -151 -2z m51 -7 c0 -8 -19 -13 -24 -6 -3 5 1 9 9 9
8 0 15 -2 15 -3z m-70 -34 c0 -5 -5 -10 -11 -10 -5 0 -7 5 -4 10 3 6 8 10 11
10 2 0 4 -4 4 -10z m-5 -60 c10 -11 16 -20 13 -20 -3 0 -13 9 -23 20 -10 11
-16 20 -13 20 3 0 13 -9 23 -20z m215 6 c0 -2 -8 -10 -17 -17 -16 -13 -17 -12
-4 4 13 16 21 21 21 13z m-135 -46 c3 -6 -1 -7 -9 -4 -18 7 -21 14 -7 14 6 0
13 -4 16 -10z m68 3 c-7 -2 -19 -2 -25 0 -7 3 -2 5 12 5 14 0 19 -2 13 -5z"/>
</g>
</svg>
